<svg id="logo" xmlns="http://www.w3.org/2000/svg" width="164" height="33.363" viewBox="0 0 164 33.363">
  <path id="Caminho_5" data-name="Caminho 5" d="M1591.46,119.087V104.076h4.638v14.816c0,3.491,2.434,5.841,6.051,5.841a5.6,5.6,0,0,0,5.987-5.841V104.076h4.637v15.011c0,5.678-4.242,9.464-10.624,9.464C1595.736,128.551,1591.46,124.766,1591.46,119.087Zm40.715-1.926v11.063H1627.7V117.88c0-2.284-1.645-3.786-4.144-3.786s-4.144,1.5-4.144,3.786v10.345h-4.473V110.636h4.309l.065,2.219a7.25,7.25,0,0,1,5.789-2.545C1629.347,110.309,1632.175,113.05,1632.175,117.162Zm1.8-10.442a2.564,2.564,0,0,1,2.664-2.643,2.538,2.538,0,0,1,2.631,2.643,2.512,2.512,0,0,1-2.631,2.611A2.538,2.538,0,0,1,1633.97,106.72Zm.428,3.915h4.473v17.589H1634.4Zm6.506,14.881,1.743-3.1a10.17,10.17,0,0,0,6.611,2.318c3.058,0,4.835-1.044,4.835-2.9,0-1.958-2.039-2.806-5.1-3.655l-1.381-.392c-4.012-1.077-7-2.741-7-6.69,0-4.406,3.585-7.342,9.012-7.342a12.836,12.836,0,0,1,8.222,2.774l-2.073,3.2a9.4,9.4,0,0,0-6.117-2.154c-2.566,0-4.243,1.077-4.243,2.774,0,1.925,1.94,2.611,4.341,3.3l1.415.392c3.749,1.011,7.729,3.035,7.729,7.375,0,4.275-3.749,7.147-9.34,7.147A12.744,12.744,0,0,1,1640.9,125.516Zm35.346-8.354v11.063h-4.308l-.1-2.513a6.355,6.355,0,0,1-5.394,2.839c-3.684,0-6.151-2.186-6.151-5.45,0-3.393,3.027-5.612,7.565-5.612a20.969,20.969,0,0,1,3.914.391v-.326c0-2.349-1.579-3.753-4.276-3.753a6.292,6.292,0,0,0-4.144,1.4l-1.941-2.611a10.849,10.849,0,0,1,7.236-2.285C1673.191,110.309,1676.25,113.017,1676.25,117.162Zm-4.473,3.72a17.853,17.853,0,0,0-3.355-.358c-2.105,0-3.454.979-3.454,2.48,0,1.436.954,2.382,2.763,2.382C1669.8,125.385,1671.744,123.754,1671.777,120.882Zm6.638-16.806h4.473v24.165h-4.473Zm24.109,16.953H1689.7c.328,2.48,1.644,4.046,4.243,4.046a5.521,5.521,0,0,0,4.341-2.088l3.453,1.73a9.113,9.113,0,0,1-7.729,3.85c-5.427,0-9.046-3.589-9.046-9.007,0-5.548,3.52-9.235,8.848-9.235,5.3,0,8.848,3.524,8.848,8.843A15.912,15.912,0,0,1,1702.524,121.029Zm-12.827-3h8.255c-.329-2.675-1.742-4.21-4.144-4.21C1691.44,113.817,1690.059,115.352,1689.7,118.027Zm14.478,8.452,1.677-2.675a9.749,9.749,0,0,0,5.1,1.3c1.645,0,2.763-.685,2.763-1.763s-1.25-1.664-3.026-2.121l-1.481-.392c-2.992-.783-5.032-1.925-5.032-4.7,0-3.492,2.763-5.808,6.972-5.808a11.8,11.8,0,0,1,6.677,1.729l-1.875,2.9a9.168,9.168,0,0,0-4.506-1.142c-1.612,0-2.73.588-2.73,1.6,0,1.044,1.118,1.534,2.664,1.925l1.48.424c3.026.783,5.427,2.154,5.427,5.254,0,3.328-2.961,5.547-7.4,5.547A10.168,10.168,0,0,1,1704.175,126.479Z" transform="translate(-1554.286 -101.345)" fill="#fff"/>
  <path id="Caminho_7" data-name="Caminho 7" d="M314.634,0H308.97c-28.9,19.372,31.46-4.7-9.579,28.622-.3.239-1.841,1.544-3.68,3.1a17.388,17.388,0,0,0,7.663,1.641c8.7,0,14.481-5.16,14.481-12.9V0Z" transform="translate(-288.803)" fill="#e74134"/>
  <path id="Caminho_8" data-name="Caminho 8" d="M15.246,16.467c4.7-3.676.2-4.695-4.29-4.884C9.114,11.506,5.443,11.5,5.51,9.626a1.654,1.654,0,0,1,.065-.4C6.026,7.6,10.232,3.326,16.537,0H0V20.463A12.805,12.805,0,0,0,1.622,26.89c4.067-3.082,9.521-7.215,13.625-10.423Z" transform="translate(0 0)" fill="#fff"/>
</svg>
